<svg t="1703348848258" class="icon" viewBox="0 0 1024 1024" version="1.1" xmlns="http://www.w3.org/2000/svg" p-id="4276" data-darkreader-inline-fill="" width="200" height="200"><path d="M889.7 955.9h-62.5c-6.5 0-12.6-2.9-16.8-7.8-4.2-4.9-6-11.5-4.9-17.9 0.3-1.7 0.5-3.4 0.6-5.1 0-11-5.9-21.2-15.4-26.7s-21.3-5.5-30.8 0-15.4 15.7-15.4 26.7c0.1 1.7 0.2 3.4 0.6 5.1 1.1 6.4-0.7 12.9-4.9 17.9-4.2 4.9-10.3 7.8-16.8 7.8h-72.1c-6.5 0-12.6-2.9-16.8-7.8-4.2-4.9-6-11.5-4.9-17.9 0.3-1.7 0.5-3.4 0.6-5.1 0-17-13.8-30.8-30.8-30.8s-30.8 13.8-30.8 30.8c0 1.7 0.2 3.4 0.6 5.1 1.1 6.4-0.7 12.9-4.9 17.9-4.2 4.9-10.3 7.8-16.8 7.8h-72.1c-6.5 0-12.6-2.9-16.8-7.8-4.2-4.9-6-11.5-4.9-17.9 0.3-1.7 0.5-3.4 0.6-5.1 0-17-13.8-30.8-30.8-30.8s-30.8 13.8-30.8 30.8c0 1.7 0.2 3.4 0.6 5.1 1.1 6.4-0.7 12.9-4.9 17.9-4.2 4.9-10.3 7.8-16.8 7.8h-72.1c-6.5 0-12.6-2.9-16.8-7.8-4.2-4.9-6-11.5-4.9-17.9 0.3-1.7 0.5-3.4 0.6-5.1 0-17-13.8-30.8-30.8-30.8s-30.8 13.8-30.8 30.8c0.1 1.7 0.2 3.4 0.6 5.1 1.1 6.4-0.7 12.9-4.9 17.9-4.2 4.9-10.3 7.8-16.8 7.8h-62.5c-5.8 0-11.4-2.3-15.6-6.4-4.1-4.1-6.4-9.7-6.4-15.5v-97.6c0-6.5 2.9-12.6 7.8-16.8 4.9-4.2 11.5-6 17.9-4.8 1.7 0.3 3.3 0.5 5 0.6 11.1 0.2 21.5-5.6 27.1-15.2 5.6-9.6 5.6-21.5 0-31.1-5.6-9.6-16-15.4-27.1-15.2-1.7 0-3.4 0.2-5 0.6-6.4 1.1-12.9-0.7-17.9-4.8-5-4.2-7.8-10.3-7.8-16.8v-72.2c0-6.5 2.9-12.6 7.8-16.8 4.9-4.2 11.5-6 17.9-4.8 1.7 0.3 3.3 0.5 5 0.6 11.1 0.2 21.5-5.6 27.1-15.2 5.6-9.6 5.6-21.5 0-31.1-5.6-9.6-16-15.4-27.1-15.2-1.7 0-3.4 0.2-5 0.6-6.4 1.1-12.9-0.7-17.9-4.8-5-4.2-7.8-10.3-7.8-16.8V485c0-6.5 2.9-12.6 7.8-16.8 4.9-4.2 11.5-6 17.9-4.8 1.7 0.3 3.3 0.5 5 0.6 11.1 0.2 21.5-5.6 27.1-15.2 5.6-9.6 5.6-21.5 0-31.1-5.6-9.6-16-15.4-27.1-15.2-1.7 0-3.4 0.2-5 0.6-6.4 1.1-12.9-0.7-17.9-4.8-5-4.2-7.8-10.3-7.8-16.8v-72.2c0-6.5 2.9-12.6 7.8-16.8 5-4.2 11.5-5.9 17.9-4.8 1.7 0.3 3.3 0.5 5 0.6 11.1 0.2 21.5-5.6 27.1-15.2 5.6-9.6 5.6-21.5 0-31.1-5.6-9.6-16-15.4-27.1-15.2-1.7 0-3.4 0.2-5 0.6-6.4 1.1-12.9-0.7-17.9-4.8-5-4.2-7.8-10.3-7.8-16.8V89.5c0.1-12.1 9.9-21.9 22-21.9h62.5c6.5 0 12.6 2.9 16.8 7.8 4.2 5 6 11.5 4.9 17.9-0.3 1.7-0.5 3.4-0.6 5.1 0 17 13.8 30.8 30.8 30.8s30.8-13.8 30.8-30.8c0-1.7-0.2-3.4-0.6-5.1-1.1-6.4 0.7-12.9 4.9-17.9 4.2-5 10.3-7.8 16.8-7.8h72.1c6.5 0 12.6 2.9 16.8 7.8 4.2 5 6 11.5 4.9 17.9-0.3 1.7-0.5 3.4-0.6 5.1 0 17 13.8 30.8 30.8 30.8s30.8-13.8 30.8-30.8c0-1.7-0.2-3.4-0.6-5.1-1.1-6.4 0.7-12.9 4.9-17.9 4.2-5 10.3-7.8 16.8-7.8h72.1c6.5 0 12.6 2.9 16.8 7.8 4.2 5 6 11.5 4.9 17.9-0.3 1.7-0.5 3.4-0.6 5.1 0 17 13.8 30.8 30.8 30.8s30.8-13.8 30.8-30.8c0-1.7-0.2-3.4-0.6-5.1-1.1-6.4 0.7-12.9 4.9-17.9 4.2-5 10.3-7.8 16.8-7.8h72.1c6.5 0 12.6 2.8 16.8 7.8 4.2 4.9 6 11.5 4.9 17.8-0.3 1.7-0.5 3.4-0.6 5.1 0 11 5.9 21.2 15.4 26.7s21.3 5.5 30.8 0 15.4-15.7 15.4-26.7c-0.1-1.7-0.2-3.4-0.6-5.1-1.1-6.4 0.7-12.9 4.9-17.8s10.3-7.8 16.8-7.8h62.5c12.1 0 21.9 9.8 22 21.9v115.3c0 6.5-2.9 12.6-7.8 16.8-5 4.2-11.5 6-17.9 4.8-1.7-0.3-3.3-0.5-5-0.6-11.1-0.2-21.5 5.6-27.1 15.2-5.6 9.6-5.6 21.5 0 31.1 5.6 9.6 16 15.4 27.1 15.2 1.7 0 3.4-0.2 5-0.6 6.4-1.1 12.9 0.7 17.9 4.8 5 4.2 7.8 10.3 7.8 16.8v72.2c0 6.5-2.9 12.6-7.8 16.8-5 4.2-11.5 5.9-17.9 4.8-1.7-0.3-3.3-0.5-5-0.6-11.1-0.2-21.5 5.6-27.1 15.2-5.6 9.6-5.6 21.5 0 31.1 5.6 9.6 16 15.4 27.1 15.2 1.7 0 3.4-0.2 5-0.6 6.4-1.1 13 0.6 17.9 4.8 5 4.2 7.8 10.3 7.8 16.8v72.2c0 6.5-2.9 12.6-7.8 16.8-5 4.2-11.5 5.9-17.9 4.8-1.7-0.3-3.3-0.5-5-0.6-11.1-0.2-21.5 5.6-27.1 15.2-5.6 9.6-5.6 21.5 0 31.1 5.6 9.6 16 15.4 27.1 15.2 1.7 0 3.4-0.2 5-0.6 6.4-1.1 13 0.6 17.9 4.8 5 4.2 7.8 10.3 7.8 16.8v72.2c0 6.5-2.8 12.7-7.8 16.8-5 4.2-11.5 6-17.9 4.9-1.7-0.3-3.3-0.5-5-0.6-11.1-0.2-21.5 5.6-27.1 15.2-5.6 9.6-5.6 21.5 0 31.1 5.6 9.6 16 15.4 27.1 15.2 1.7 0 3.4-0.2 5-0.6 6.4-1.1 12.9 0.7 17.9 4.8 5 4.2 7.8 10.3 7.8 16.8V934c-0.1 12.1-9.9 21.9-22 21.9z m-40.8-44h18.8V858c-35.6-6.4-61.5-37.4-61.5-73.6s25.9-67.2 61.5-73.6v-28.7c-35.6-6.4-61.5-37.4-61.5-73.6 0-36.2 25.9-67.2 61.5-73.6v-28.7c-35.6-6.4-61.5-37.4-61.5-73.6 0-36.2 25.9-67.2 61.5-73.6v-28.7c-35.6-6.4-61.5-37.4-61.5-73.6s25.9-67.2 61.5-73.6v-71.5H849c-6.4 35.6-37.4 61.6-73.6 61.6-36.2 0-67.2-25.9-73.6-61.6H673c-6.4 35.6-37.4 61.6-73.6 61.6-36.2 0-67.2-25.9-73.6-61.6h-28.7c-6.4 35.6-37.4 61.6-73.6 61.6-36.2 0-67.2-25.9-73.6-61.6h-28.7c-6.4 35.6-37.4 61.6-73.6 61.6-36.2 0-67.2-25.9-73.6-61.6h-18.8v71.5c35.6 6.4 61.5 37.4 61.5 73.6s-25.9 67.2-61.5 73.6V359c35.6 6.4 61.5 37.4 61.5 73.6s-25.9 67.2-61.5 73.6v28.7c35.6 6.4 61.5 37.4 61.5 73.6s-25.9 67.2-61.5 73.6v28.7c35.6 6.4 61.5 37.4 61.5 73.6 0 36.2-25.9 67.2-61.5 73.6v53.9H174c6.4-35.6 37.4-61.6 73.6-61.6 36.2 0 67.2 25.9 73.6 61.6h28.7c6.4-35.6 37.4-61.6 73.6-61.6 36.2 0 67.2 25.9 73.6 61.6h28.7c6.4-35.6 37.4-61.6 73.6-61.6 36.2 0 67.2 25.9 73.6 61.6h28.7c6.4-35.6 37.4-61.6 73.6-61.6 36.2 0 67.2 26 73.6 61.6z m0 0" fill="#13227a" p-id="4277" data-darkreader-inline-fill="" style="--darkreader-inline-fill: #101b5b;"></path><path d="M748.9 815.2H436.3c-8 0.2-15.4-4-19.4-10.9-4-6.9-4-15.4 0-22.3s11.5-11 19.4-10.9H727V252.3H296v518.9h34.3c8-0.2 15.4 4 19.4 10.9 4 6.9 4 15.4 0 22.3s-11.5 11-19.4 10.9H274c-5.8 0-11.4-2.3-15.6-6.4-4.1-4.1-6.4-9.7-6.4-15.6v-563c0-5.8 2.3-11.4 6.4-15.6 4.1-4.1 9.7-6.4 15.6-6.4h475c5.8 0 11.4 2.3 15.6 6.4 4.1 4.1 6.4 9.7 6.4 15.6v562.9c0 5.8-2.3 11.4-6.4 15.6-4.2 4.1-9.8 6.4-15.7 6.4z m0 0" fill="#13227a" p-id="4278" data-darkreader-inline-fill="" style="--darkreader-inline-fill: #101b5b;"></path><path d="M530.8 692c-65.8 0-126-44.1-143.4-110.7-20.7-79 26.8-160.2 105.8-180.9 79-20.7 160.2 26.8 180.9 105.8 11.6 44.4 2 91.7-26.1 128-28 36.5-71.3 57.8-117.2 57.8z m0-252.3c-44.6 0-84.2 28.4-98.6 70.6-14.4 42.2-0.3 88.9 35 116.1 35.3 27.2 84 29 121.2 4.4s54.6-70.1 43.3-113.3c-12.2-45.8-53.5-77.8-100.9-77.8z m0 0" fill="#13227a" p-id="4279" data-darkreader-inline-fill="" style="--darkreader-inline-fill: #101b5b;"></path><path d="M423.9 488.4c-8.1 0-15.6-4.5-19.4-11.7-15.4-29.1-30.6-74.4-15.8-125.2 2.3-8 9-14 17.1-15.5 8.2-1.5 16.5 1.7 21.5 8.4l56.6 74.6c4.9 6.3 6 14.6 2.9 21.9-3 7.3-9.8 12.4-17.6 13.4-7.9 1-15.6-2.4-20.3-8.8l-19.1-25.1c3 12.4 7.5 24.4 13.5 35.6 3.6 6.8 3.4 15-0.6 21.6-4 6.7-11.1 10.7-18.8 10.8z m0 0" fill="#13227a" p-id="4280" data-darkreader-inline-fill="" style="--darkreader-inline-fill: #8eb3e7;"></path><path d="M499 437.5c-9.2 0-17.4-5.7-20.6-14.3-0.8-2.1-18.6-46.6-67.4-43.6-12.1 0.7-22.5-8.6-23.2-20.7-0.7-12.1 8.5-22.5 20.6-23.2 65.5-3.9 101.5 45.6 111.2 72.3 2.5 6.7 1.5 14.3-2.6 20.2-4.1 5.8-10.8 9.3-18 9.3z m0 0M553.1 559.6c0 9.4 5 18.2 13.2 22.9 8.2 4.7 18.3 4.7 26.4 0 8.2-4.7 13.2-13.4 13.2-22.9 0-9.4-5-18.2-13.2-22.9-8.2-4.7-18.3-4.7-26.4 0-8.1 4.7-13.2 13.4-13.2 22.9z m0 0" fill="#13227a" p-id="4281" data-darkreader-inline-fill="" style="--darkreader-inline-fill: #101b5b;"></path></svg>